<svg width="189" height="24" viewBox="0 0 189 24" fill="none" xmlns="http://www.w3.org/2000/svg">
<path d="M85.9192 0.0791016H70.3203C67.074 0.0791016 64.418 2.73514 64.418 5.9814V22.2127C64.418 22.8029 64.8817 23.2667 65.472 23.2667H66.7367C67.327 23.2667 67.7907 22.8029 67.7907 22.2127V5.9814C67.7907 4.59014 68.929 3.45184 70.3203 3.45184H85.9192C87.3105 3.45184 88.4488 4.59014 88.4488 5.9814V22.2127C88.4488 22.8029 88.9125 23.2667 89.5027 23.2667H90.7675C91.3577 23.2667 91.8215 22.8029 91.8215 22.2127V5.9814C91.8215 2.73514 89.2076 0.0791016 85.9192 0.0791016Z" fill="#14005C"/>
<path d="M187.947 13.1484H186.682C186.092 13.1484 185.628 13.6122 185.628 14.2024V17.3644C185.628 18.7556 184.49 19.8939 183.099 19.8939H167.5C166.109 19.8939 164.97 18.7556 164.97 17.3644V14.2024C164.97 13.6122 164.507 13.1484 163.916 13.1484H162.652C162.061 13.1484 161.598 13.6122 161.598 14.2024V17.3644C161.598 20.6106 164.254 23.2667 167.5 23.2667H183.099C186.345 23.2667 189.001 20.6106 189.001 17.3644V14.2024C189.001 13.6122 188.537 13.1484 187.947 13.1484Z" fill="#14005C"/>
<path d="M183.099 0.0791016H167.5C164.254 0.0791016 161.598 2.73514 161.598 5.9814V9.14334C161.598 9.73357 162.061 10.1973 162.652 10.1973H163.916C164.507 10.1973 164.97 9.73357 164.97 9.14334V5.9814C164.97 4.59014 166.109 3.45184 167.5 3.45184H183.099C184.49 3.45184 185.628 4.59014 185.628 5.9814V9.14334C185.628 9.73357 186.092 10.1973 186.682 10.1973H187.947C188.537 10.1973 189.001 9.73357 189.001 9.14334V5.9814C189.001 2.73514 186.387 0.0791016 183.099 0.0791016Z" fill="#14005C"/>
<path d="M154.221 13.1484H152.956C152.366 13.1484 151.902 13.6122 151.902 14.2024V17.3644C151.902 18.7556 150.764 19.8939 149.372 19.8939H133.773C132.382 19.8939 131.244 18.7556 131.244 17.3644V14.2024C131.244 13.6122 130.78 13.1484 130.19 13.1484H128.925C128.335 13.1484 127.871 13.6122 127.871 14.2024V17.3644C127.871 20.6106 130.527 23.2667 133.773 23.2667H149.372C152.619 23.2667 155.275 20.6106 155.275 17.3644V14.2024C155.275 13.6122 154.811 13.1484 154.221 13.1484Z" fill="#14005C"/>
<path d="M149.372 0.0791016H133.773C130.527 0.0791016 127.871 2.73514 127.871 5.9814V9.14334C127.871 9.73357 128.335 10.1973 128.925 10.1973H130.19C130.78 10.1973 131.244 9.73357 131.244 9.14334V5.9814C131.244 4.59014 132.382 3.45184 133.773 3.45184H149.372C150.764 3.45184 151.902 4.59014 151.902 5.9814V9.14334C151.902 9.73357 152.366 10.1973 152.956 10.1973H154.221C154.811 10.1973 155.275 9.73357 155.275 9.14334V5.9814C155.275 2.73514 152.661 0.0791016 149.372 0.0791016Z" fill="#14005C"/>
<path d="M56.9159 13.1484H55.6512C55.0609 13.1484 54.5972 13.6122 54.5972 14.2024V17.3644C54.5972 18.7556 53.4589 19.8939 52.0676 19.8939H36.4687C35.0774 19.8939 33.9391 18.7556 33.9391 17.3644V14.2024C33.9391 13.6122 33.4754 13.1484 32.8852 13.1484H31.6204C31.0302 13.1484 30.5664 13.6122 30.5664 14.2024V17.3644C30.5664 20.6106 33.2224 23.2667 36.4687 23.2667H52.0676C55.3139 23.2667 57.9699 20.6106 57.9699 17.3644V14.2024C57.9699 13.6122 57.5062 13.1484 56.9159 13.1484Z" fill="#14005C"/>
<path d="M52.0676 0.0791016H36.4687C33.2224 0.0791016 30.5664 2.73514 30.5664 5.9814V9.14334C30.5664 9.73357 31.0302 10.1973 31.6204 10.1973H32.8852C33.4754 10.1973 33.9391 9.73357 33.9391 9.14334V5.9814C33.9391 4.59014 35.0774 3.45184 36.4687 3.45184H52.0676C53.4589 3.45184 54.5972 4.59014 54.5972 5.9814V9.14334C54.5972 9.73357 55.0609 10.1973 55.6512 10.1973H56.9159C57.5062 10.1973 57.9699 9.73357 57.9699 9.14334V5.9814C57.9699 2.73514 55.3561 0.0791016 52.0676 0.0791016Z" fill="#14005C"/>
<path d="M25.2956 19.894H5.9023C4.51104 19.894 3.37274 18.7557 3.37274 17.3644V5.9814C3.37274 4.59014 4.51104 3.45184 5.9023 3.45184H15.8097C16.4 3.45184 16.8637 2.98809 16.8637 2.39786V1.13308C16.8637 0.542854 16.4 0.0791016 15.8097 0.0791016H5.9023C2.65603 0.0791016 0 2.73514 0 5.9814V17.3644C0 20.6107 2.65603 23.2667 5.9023 23.2667H25.2956C25.8858 23.2667 26.3495 22.8029 26.3495 22.2127V20.9479C26.3495 20.3577 25.8858 19.894 25.2956 19.894Z" fill="#14005C"/>
<path d="M116.486 0.0791016H97.093C96.5028 0.0791016 96.0391 0.542854 96.0391 1.13308V2.39786C96.0391 2.98809 96.5028 3.45184 97.093 3.45184H116.486C117.878 3.45184 119.016 4.59014 119.016 5.9814V8.51095C119.016 9.90221 117.878 11.0405 116.486 11.0405H106.115C105.272 11.0405 104.513 11.6729 104.429 12.6004C104.387 13.2328 104.682 13.823 105.188 14.1603L118.847 23.7304C119.311 24.0677 119.986 23.9412 120.323 23.4775L121.04 22.4235C121.377 21.9598 121.25 21.2852 120.787 20.9479L111.469 14.4133H116.486C119.733 14.4133 122.389 11.7572 122.389 8.51095V5.9814C122.389 2.73514 119.775 0.0791016 116.486 0.0791016Z" fill="#14005C"/>
</svg>
